<?xml version="1.0" encoding="UTF-8" standalone="no"?>
<svg
   xmlns="http://www.w3.org/2000/svg"
   height="768"
   width="768"
   version="1.1"
   viewBox="0 0 768 768"
   class="svg-inline--fa fa-fist-raised fa-w-12">
  <path
     style="fill:white"
     d="M 447.98,288 V 144 c 0,-8.84 -7.16,-16 -16,-16 h -32 c -8.84,0 -16,7.16 -16,16 V 290.93 C 389,289.15 394.32,288 399.95,288 Z m 128,95.99 C 575.97,348.65 547.32,320 511.99,320 H 399.85 c -8.78,0 -15.9,7.07 -15.9,15.85 v 0.56 c 0,26.27 21.3,47.59 47.57,47.59 h 35.26 c 9.68,0 13.2,3.58 13.2,8 v 16.2 c 0,4.29 -3.59,7.78 -7.88,8 -44.52,2.28 -64.16,24.71 -96.05,72.55 l -6.31,9.47 a 7.994,7.994 0 0 1 -11.09,2.22 l -13.31,-8.88 a 7.994,7.994 0 0 1 -2.22,-11.09 l 6.31,-9.47 c 15.73,-23.6 30.2,-43.26 47.31,-58.08 -17.27,-5.51 -31.4,-18.12 -38.87,-34.45 -6.59,3.41 -13.96,5.52 -21.87,5.52 h -32 c -12.34,0 -23.49,-4.81 -32,-12.48 -8.52,7.68 -19.67,12.49 -32,12.49 h -32 c -5.64,0 -10.97,-1.15 -16,-2.95 v 77.93 c 0,33.95 13.48,66.5 37.49,90.51 l 26.5,26.51 v 64 h 255.98 v -63.96 l 35.91,-35.92 A 96.035,96.035 0 0 0 576,472.21 Z M 543.97,293.9 V 176 c 0,-8.84 -7.16,-16 -16,-16 h -32 c -8.84,0 -16,7.16 -16,16 v 112 h 32 c 11.28,0 21.94,2.31 32,5.9 z M 208,352 h 32 c 8.84,0 16,-7.16 16,-16 V 208 c 0,-8.84 -7.16,-16 -16,-16 h -32 c -8.84,0 -16,7.16 -16,16 v 128 c 0,8.84 7.16,16 16,16 z m 95.99,0 h 32 c 8.84,0 16,-7.16 16,-16 V 176 c 0,-8.84 -7.16,-16 -16,-16 h -32 c -8.84,0 -16,7.16 -16,16 v 160 c 0,8.84 7.16,16 16,16 z" />
</svg>
